<svg width="25" height="25" viewBox="0 0 25 25" fill="none" xmlns="http://www.w3.org/2000/svg">
    <path
        d="M9 15.0598H16M9 18.0598H12.5M20 2.05984H6C5.73478 2.05984 5.48043 2.1652 5.29289 2.35274C5.10536 2.54027 5 2.79463 5 3.05984V21.0598C5 21.3251 5.10536 21.5794 5.29289 21.767C5.48043 21.9545 5.73478 22.0598 6 22.0598H20C20.2652 22.0598 20.5196 21.9545 20.7071 21.767C20.8946 21.5794 21 21.3251 21 21.0598V3.05984C21 2.79463 20.8946 2.54027 20.7071 2.35274C20.5196 2.1652 20.2652 2.05984 20 2.05984Z"
       stroke="#555555" stroke-width="2" stroke-linecap="round" stroke-linejoin="round" />
    <path d="M9 6.05984H16V11.0598H9V6.05984Z" stroke="#555555" stroke-width="2"
        stroke-linecap="round" stroke-linejoin="round" />
</svg>