<svg width="29" height="34" viewBox="0 0 29 34" fill="none" xmlns="http://www.w3.org/2000/svg">
    <path
        d="M3.39894 23.2655C-1.72694 16.8035 0.933841 7.33289 8.53754 4.84268C13.0101 3.37789 17.8803 4.71499 20.9251 8.24364C21.5638 8.98387 21.5689 8.98899 20.8825 9.6778C17.8254 12.7459 14.7652 15.811 11.706 18.877C9.90477 20.6822 8.10291 22.4867 6.30255 24.2928C6.16253 24.4333 6.03202 24.5833 5.84837 24.7814C8.31289 26.742 11.0477 27.43 14.0909 26.9319C17.0865 26.4416 19.4573 24.8868 21.3868 22.3827C21.3235 23.6357 18.4102 25.9382 16.051 26.7636C11.8451 28.2351 6.64792 27.187 3.39894 23.2655ZM12.1611 18.0262C14.8581 15.3174 17.5503 12.6036 20.2593 9.90696C20.5504 9.61722 20.6128 9.40457 20.4163 9.02759C19.7938 7.83327 18.9458 6.8502 17.8334 6.10502C14.5997 3.93877 9.7072 4.05459 6.46779 6.36441C1.26114 10.0769 0.136687 17.7192 4.05086 22.8996C4.50543 23.5012 5.05502 24.0302 5.61569 24.6542C7.83992 22.4018 9.9702 20.2444 12.1611 18.0262Z"
        fill="white" />
    <path
        d="M21.9802 30.9913C22.2536 31.2856 22.1852 31.5543 21.9572 31.829C22.2572 32.0293 22.3388 32.3129 22.219 32.6219C22.089 32.9571 21.7796 32.9934 21.4654 32.989C21.2139 32.9855 20.9624 32.9883 20.6817 32.9883C20.6817 32.292 20.6817 31.6109 20.6817 30.8329C21.1043 30.8793 21.5315 30.9263 21.9802 30.9913ZM21.5761 32.6724C21.6949 32.5625 21.8136 32.4526 21.9324 32.3426C21.7978 32.247 21.6749 32.1141 21.5252 32.0663C21.3752 32.0185 21.1984 32.0558 21.0206 32.0558C21.0206 32.281 21.0206 32.464 21.0206 32.6759C21.2067 32.6759 21.3611 32.6759 21.5761 32.6724ZM21.8182 31.428C21.6406 31.022 21.3066 31.228 21.0096 31.1788C21.0096 31.3847 21.0096 31.546 21.0096 31.7411C21.3103 31.6975 21.6511 31.909 21.8182 31.428Z"
        fill="#F45454" />
    <path
        d="M2.81699 32.2321C2.82018 32.7674 2.63276 32.9717 2.14155 32.9863C1.85316 32.9948 1.56431 32.9878 1.24368 32.9878C1.24368 32.2875 1.24368 31.6047 1.24368 30.8833C1.59265 30.8833 1.95434 30.8483 2.30627 30.8923C2.73697 30.9461 2.82917 31.3445 2.56128 31.8083C2.64749 31.946 2.72867 32.0756 2.81699 32.2321ZM1.81821 32.677C1.949 32.6712 2.0942 32.6991 2.20653 32.6503C2.31991 32.6011 2.48873 32.4598 2.47571 32.3877C2.45455 32.2705 2.32007 32.1151 2.20615 32.0868C2.00847 32.0376 1.78995 32.0731 1.58497 32.0731C1.52032 32.579 1.52032 32.579 1.81821 32.677ZM1.87366 31.7474C2.0387 31.6823 2.21022 31.6287 2.36274 31.5414C2.38988 31.5259 2.35683 31.3017 2.31977 31.2915C2.07997 31.226 1.83135 31.1932 1.51117 31.1364C1.62954 31.4148 1.34992 31.7534 1.87366 31.7474Z"
        fill="#F45454" />
    <path
        d="M24.5581 31.7518C24.5581 31.4509 24.5581 31.1859 24.5581 30.879C25.1315 30.9153 25.7454 30.6653 26.166 31.2442C26.4518 31.6375 26.4631 32.089 26.2298 32.5119C25.8508 33.199 25.1853 32.9343 24.5581 32.9957C24.5581 32.5752 24.5581 32.1815 24.5581 31.7518ZM24.8983 32.4196C24.9438 32.5026 24.9721 32.6386 25.0375 32.6601C25.5763 32.8371 26.0411 32.4829 26.0349 31.917C26.0283 31.3097 25.6037 31.0493 24.8979 31.2437C24.8979 31.6078 24.8979 31.9796 24.8983 32.4196Z"
        fill="#F45454" />
    <path
        d="M27.0754 32.9399C26.8686 32.7945 26.5296 32.7114 26.8115 32.4493C27.1156 32.545 27.3596 32.6474 27.6132 32.6867C27.6934 32.6992 27.8616 32.5531 27.8759 32.4616C27.8896 32.3733 27.7773 32.2299 27.6832 32.1688C27.5669 32.0934 27.4109 32.0818 27.2744 32.0359C26.9565 31.9293 26.749 31.7344 26.7947 31.3679C26.8385 31.0166 27.0933 30.866 27.399 30.8572C27.6132 30.851 27.8457 30.9194 28.0423 31.0133C28.2443 31.1099 28.2392 31.268 28.0619 31.3633C27.839 31.2838 27.6474 31.1781 27.4481 31.1604C27.348 31.1514 27.2338 31.3026 27.126 31.3813C27.204 31.4874 27.2608 31.6293 27.3648 31.691C27.5162 31.7809 27.7069 31.8007 27.871 31.8728C28.1079 31.9769 28.274 32.1462 28.2389 32.4331C28.2025 32.7311 28.0293 32.9342 27.7397 32.9776C27.5322 33.0087 27.3133 32.9631 27.0754 32.9399Z"
        fill="#F45454" />
    <path
        d="M6.09383 32.2955C6.28181 31.8073 6.45918 31.3452 6.63048 30.8988C6.87602 30.8247 7.00153 30.8901 7.08463 31.1274C7.29879 31.739 7.54242 32.3402 7.77482 32.9471C7.53647 33.0398 7.38807 32.9831 7.35064 32.7523C7.30152 32.4495 7.09286 32.4519 6.86658 32.4685C6.6218 32.4864 6.32968 32.3695 6.23789 32.7626C6.21241 32.8717 6.04862 32.9481 5.94828 33.0395C5.9141 33.0093 5.87992 32.9792 5.84573 32.949C5.9249 32.7398 6.00406 32.5307 6.09383 32.2955ZM6.68835 31.5829C6.63246 31.7497 6.57657 31.9165 6.51284 32.1068C6.72196 32.1068 6.8889 32.1068 7.09711 32.1068C6.99632 31.8217 6.9101 31.5779 6.81027 31.2956C6.76141 31.401 6.73168 31.4652 6.68835 31.5829Z"
        fill="#F45454" />
    <path
        d="M23.4801 31.1769C23.3283 31.1769 23.2101 31.1769 23.0671 31.1769C23.0671 31.3689 23.0671 31.531 23.0671 31.733C23.3235 31.733 23.5826 31.733 23.8366 31.733C23.8744 32.0451 23.8744 32.0465 23.5855 32.0517C23.4184 32.0547 23.2511 32.0523 23.0637 32.0523C23.0637 32.2683 23.0637 32.4548 23.0637 32.6721C23.3955 32.6721 23.706 32.6721 24.0289 32.6721C24.0354 32.7841 24.0401 32.8662 24.046 32.9679C23.6161 32.9679 23.1984 32.9679 22.75 32.9679C22.75 32.2872 22.75 31.6057 22.75 30.8969C23.162 30.8969 23.576 30.8969 24.0086 30.8969C24.0843 31.0609 24.0853 31.1834 23.8388 31.1768C23.7305 31.1739 23.6221 31.1767 23.4801 31.1769Z"
        fill="#FD5757" />
    <path
        d="M9.11052 33.0008C8.44552 33.102 7.91132 32.6139 7.938 31.8763C7.96138 31.2302 8.51609 30.7603 9.13674 30.8751C9.34514 30.9136 9.53556 31.0505 9.7342 31.1425C9.72804 31.1928 9.72188 31.2432 9.71571 31.2935C9.60439 31.3056 9.47261 31.3626 9.38522 31.3223C8.96945 31.1304 8.67363 31.1544 8.44457 31.4342C8.22864 31.698 8.22117 32.1491 8.42829 32.4168C8.65126 32.705 9.01338 32.7562 9.40623 32.5546C9.43777 32.5384 9.46863 32.5209 9.49863 32.5046C9.7042 32.725 9.70553 32.7689 9.47934 32.885C9.37424 32.9389 9.25292 32.9609 9.11052 33.0008Z"
        fill="#F45454" />
    <path
        d="M13.9043 31.9769C13.972 32.1483 14.0286 32.2943 14.1149 32.5166C14.2983 32.0188 14.4709 31.5903 14.6119 31.1516C14.6902 30.9078 14.8094 30.809 15.0891 30.9084C14.8285 31.5566 14.5724 32.2054 14.3022 32.8483C14.275 32.9131 14.1623 32.979 14.0909 32.9773C14.018 32.9756 13.9087 32.9072 13.8811 32.8405C13.6186 32.2062 13.3701 31.5661 13.1138 30.918C13.3843 30.8021 13.502 30.9031 13.5787 31.1402C13.6678 31.4158 13.7871 31.6815 13.9043 31.9769Z"
        fill="#F45454" />
    <path
        d="M4.63898 31.2305C4.23272 31.7482 3.95529 32.2828 4.13085 32.9637C4.09641 32.9832 4.06196 33.0027 4.02752 33.0222C3.94494 32.9542 3.78204 32.8701 3.79184 32.8207C3.93948 32.0756 3.45068 31.6 3.08592 31.0712C3.05871 31.0318 3.03454 30.9901 3.01112 30.9482C3.00694 30.9407 3.01345 30.9272 3.01958 30.8853C3.60402 30.8114 3.58229 31.4525 3.9405 31.658C4.29591 31.509 4.21482 30.815 4.84347 30.8814C4.76795 31.0128 4.71108 31.1118 4.63898 31.2305Z"
        fill="#F45454" />
    <path
        d="M19.5799 32.0376C19.5717 32.3564 19.5717 32.6458 19.5717 33.0598C19.4111 32.955 19.2327 32.8771 19.2408 32.8383C19.408 32.0326 18.8351 31.5408 18.4747 30.96C18.4689 30.9506 18.4682 30.9379 18.4619 30.9152C18.7379 30.7708 18.8684 30.9472 18.9974 31.1491C19.114 31.3316 19.2442 31.5053 19.366 31.6793C19.7467 31.5006 19.6713 30.8156 20.3147 30.89C20.0555 31.289 19.8218 31.6486 19.5799 32.0376Z"
        fill="#F45454" />
    <path
        d="M12.7755 32.744C12.7515 32.8417 12.7195 32.973 12.6774 32.9763C12.4271 32.9961 12.1742 32.9929 11.923 32.9805C11.8776 32.9783 11.8359 32.8979 11.7925 32.8536C11.8805 32.7764 11.9686 32.6993 12.103 32.5815C12.103 32.1737 12.103 31.6962 12.103 31.1906C12.0638 31.1844 12.0136 31.1897 11.9798 31.1685C11.9123 31.1264 11.8538 31.0698 11.7915 31.0191C11.8612 30.9696 11.9281 30.8825 12.0009 30.8773C12.2503 30.8596 12.5018 30.8705 12.7524 30.8705C12.7757 30.9021 12.7991 30.9336 12.8224 30.9652C12.7316 31.0586 12.6408 31.152 12.55 31.2455C12.5231 31.2297 12.4963 31.2139 12.4695 31.1981C12.4695 31.6303 12.4546 32.0634 12.4827 32.4936C12.488 32.5744 12.665 32.6439 12.7755 32.744Z"
        fill="#F45454" />
    <path
        d="M10.7332 32.9848C10.6438 32.8943 10.5406 32.8036 10.5374 32.7095C10.5209 32.2149 10.5297 31.7195 10.5297 31.2787C10.3727 31.0396 9.92163 31.4083 9.95382 30.8901C10.4552 30.8901 10.9423 30.8901 11.4479 30.8901C11.4479 30.9786 11.4479 31.0682 11.4479 31.1637C11.2624 31.1741 11.0962 31.1834 10.8717 31.196C10.8717 31.6821 10.8785 32.16 10.8669 32.6375C10.8641 32.7534 10.8009 32.8679 10.7332 32.9848Z"
        fill="#F45454" />
    <path
        d="M16.2858 30.8759C16.5583 31.2048 16.222 31.1366 16.0435 31.2273C16.1933 31.7874 15.7137 32.4577 16.5009 32.9208C16.4591 32.9352 16.4173 32.9497 16.3755 32.9641C16.0573 32.9641 15.739 32.9641 15.4208 32.9641C15.3987 32.9392 15.3766 32.9143 15.3545 32.8893C15.4522 32.796 15.55 32.7026 15.7099 32.5498C15.7099 32.1761 15.7099 31.6978 15.7099 31.1897C15.6601 31.1829 15.5943 31.1921 15.5535 31.1642C15.4892 31.1204 15.4418 31.0516 15.3872 30.9934C15.4471 30.9526 15.5051 30.8804 15.5672 30.8766C15.7948 30.8627 16.0239 30.8716 16.2858 30.8759Z"
        fill="#FD5757" />
    <path
        d="M17.3193 32.0425C17.3193 31.7433 17.3193 31.4799 17.3193 31.2693C17.1422 31.0583 16.71 31.3792 16.7419 30.8706C17.1982 30.8706 17.6291 30.8644 18.0594 30.8772C18.1251 30.8792 18.1882 30.969 18.2525 31.0181C18.1914 31.0707 18.1365 31.1553 18.0677 31.1689C17.9434 31.1936 17.8108 31.1759 17.6465 31.1759C17.6465 31.798 17.6465 32.3753 17.6465 32.9642C17.5297 32.9721 17.4485 32.9777 17.3193 32.9865C17.3193 32.6746 17.3193 32.3765 17.3193 32.0425Z"
        fill="#FD5757" />
    <path
        d="M12.1184 0.608351C12.5383 -0.09084 12.5383 -0.09084 13.4024 0.131247C12.8863 0.559511 12.4341 0.934794 11.9819 1.31007C11.9317 1.27067 11.8814 1.23128 11.8311 1.19188C11.92 1.01071 12.0089 0.829538 12.1184 0.608351Z"
        fill="white" />
    <path
        d="M12.1308 18.0566C9.9702 20.2444 7.83992 22.4017 5.61569 24.6542C5.05502 24.0302 4.50543 23.5011 4.05086 22.8995C0.136687 17.7192 1.26114 10.0769 6.46779 6.36439C9.7072 4.05457 14.5997 3.93875 17.8334 6.105C18.9458 6.85018 19.7938 7.83325 20.4163 9.02757C20.6128 9.40455 20.5504 9.6172 20.2593 9.90694C17.5503 12.6036 14.8581 15.3174 12.1308 18.0566Z"
        fill="#1B1B1B" />
    <path
        d="M21.5463 32.6742C21.3616 32.6759 21.2071 32.6759 21.021 32.6759C21.021 32.464 21.021 32.281 21.021 32.0558C21.1989 32.0558 21.3757 32.0185 21.5256 32.0664C21.6754 32.1141 21.7982 32.247 21.9329 32.3426C21.8141 32.4526 21.6953 32.5625 21.5463 32.6742Z"
        fill="#2A1F1F" />
    <path
        d="M21.8185 31.4581C21.6514 31.909 21.3105 31.6974 21.0098 31.7411C21.0098 31.546 21.0098 31.3847 21.0098 31.1787C21.3068 31.2279 21.6408 31.0219 21.8185 31.4581Z"
        fill="#2A1F1F" />
    <path
        d="M1.78655 32.6766C1.52033 32.5789 1.52033 32.5789 1.58499 32.0731C1.78997 32.0731 2.00849 32.0376 2.20616 32.0867C2.32009 32.1151 2.45457 32.2704 2.47573 32.3876C2.48875 32.4598 2.31992 32.6011 2.20655 32.6503C2.09422 32.699 1.94902 32.6712 1.78655 32.6766Z"
        fill="#2A1F1F" />
    <path
        d="M1.84213 31.7475C1.35001 31.7535 1.62963 31.4149 1.51126 31.1365C1.83144 31.1933 2.08006 31.2261 2.31986 31.2917C2.35692 31.3018 2.38997 31.526 2.36283 31.5415C2.21031 31.6288 2.03879 31.6824 1.84213 31.7475Z"
        fill="#2A1F1F" />
    <path
        d="M24.8977 32.3855C24.8975 31.9796 24.8975 31.6078 24.8975 31.2437C25.6033 31.0493 26.0279 31.3097 26.0345 31.917C26.0406 32.4829 25.5758 32.8371 25.0371 32.6602C24.9716 32.6387 24.9434 32.5026 24.8977 32.3855Z"
        fill="#1B1B1B" />
    <path
        d="M6.69503 31.5561C6.73156 31.4651 6.76129 31.401 6.81015 31.2955C6.90998 31.5779 6.9962 31.8217 7.09699 32.1068C6.88878 32.1068 6.72184 32.1068 6.51273 32.1068C6.57646 31.9165 6.63234 31.7497 6.69503 31.5561Z"
        fill="#2A1F1F" />
</svg>