<svg width="25" height="25" viewBox="0 0 25 25" fill="none" xmlns="http://www.w3.org/2000/svg">
    <path
        d="M11.325 22.0598C10.875 22.0598 10.4877 21.9098 10.163 21.6098C9.83833 21.3098 9.64233 20.9432 9.575 20.5098L9.35 18.8598C9.13333 18.7765 8.92933 18.6765 8.738 18.5598C8.54667 18.4432 8.359 18.3182 8.175 18.1848L6.625 18.8348C6.20833 19.0182 5.79167 19.0348 5.375 18.8848C4.95833 18.7348 4.63333 18.4682 4.4 18.0848L3.225 16.0348C2.99167 15.6515 2.925 15.2432 3.025 14.8098C3.125 14.3765 3.35 14.0182 3.7 13.7348L5.025 12.7348C5.00833 12.6182 5 12.5055 5 12.3968V11.7218C5 11.6138 5.00833 11.5015 5.025 11.3848L3.7 10.3848C3.35 10.1015 3.125 9.74318 3.025 9.30984C2.925 8.87651 2.99167 8.46818 3.225 8.08484L4.4 6.03484C4.63333 5.65151 4.95833 5.38485 5.375 5.23485C5.79167 5.08485 6.20833 5.10151 6.625 5.28484L8.175 5.93484C8.35833 5.80151 8.55 5.67651 8.75 5.55984C8.95 5.44318 9.15 5.34318 9.35 5.25984L9.575 3.60984C9.64167 3.17651 9.83767 2.80985 10.163 2.50985C10.4883 2.20985 10.8757 2.05984 11.325 2.05984H13.675C14.125 2.05984 14.5127 2.20985 14.838 2.50985C15.1633 2.80985 15.359 3.17651 15.425 3.60984L15.65 5.25984C15.8667 5.34318 16.071 5.44318 16.263 5.55984C16.455 5.67651 16.6423 5.80151 16.825 5.93484L18.375 5.28484C18.7917 5.10151 19.2083 5.08485 19.625 5.23485C20.0417 5.38485 20.3667 5.65151 20.6 6.03484L21.775 8.08484C22.0083 8.46818 22.075 8.87651 21.975 9.30984C21.875 9.74318 21.65 10.1015 21.3 10.3848L19.975 11.3848C19.9917 11.5015 20 11.6142 20 11.7228V12.3968C20 12.5055 19.9833 12.6182 19.95 12.7348L21.275 13.7348C21.625 14.0182 21.85 14.3765 21.95 14.8098C22.05 15.2432 21.9833 15.6515 21.75 16.0348L20.55 18.0848C20.3167 18.4682 19.9917 18.7348 19.575 18.8848C19.1583 19.0348 18.7417 19.0182 18.325 18.8348L16.825 18.1848C16.6417 18.3182 16.45 18.4432 16.25 18.5598C16.05 18.6765 15.85 18.7765 15.65 18.8598L15.425 20.5098C15.3583 20.9432 15.1627 21.3098 14.838 21.6098C14.5133 21.9098 14.1257 22.0598 13.675 22.0598H11.325ZM11.5 20.0598H13.475L13.825 17.4098C14.3417 17.2765 14.821 17.0808 15.263 16.8228C15.705 16.5648 16.109 16.2522 16.475 15.8848L18.95 16.9098L19.925 15.2098L17.775 13.5848C17.8583 13.3515 17.9167 13.1058 17.95 12.8478C17.9833 12.5898 18 12.3272 18 12.0598C18 11.7925 17.9833 11.5302 17.95 11.2728C17.9167 11.0155 17.8583 10.7695 17.775 10.5348L19.925 8.90985L18.95 7.20985L16.475 8.25984C16.1083 7.87651 15.7043 7.55584 15.263 7.29784C14.8217 7.03984 14.3423 6.84384 13.825 6.70985L13.5 4.05984H11.525L11.175 6.70985C10.6583 6.84318 10.1793 7.03918 9.738 7.29784C9.29667 7.55651 8.89233 7.86884 8.525 8.23485L6.05 7.20985L5.075 8.90985L7.225 10.5098C7.14167 10.7598 7.08333 11.0098 7.05 11.2598C7.01667 11.5098 7 11.7765 7 12.0598C7 12.3265 7.01667 12.5848 7.05 12.8348C7.08333 13.0848 7.14167 13.3348 7.225 13.5848L5.075 15.2098L6.05 16.9098L8.525 15.8598C8.89167 16.2432 9.296 16.5642 9.738 16.8228C10.18 17.0815 10.659 17.2772 11.175 17.4098L11.5 20.0598ZM12.55 15.5598C13.5167 15.5598 14.3417 15.2182 15.025 14.5348C15.7083 13.8515 16.05 13.0265 16.05 12.0598C16.05 11.0932 15.7083 10.2682 15.025 9.58484C14.3417 8.90151 13.5167 8.55984 12.55 8.55984C11.5667 8.55984 10.7377 8.90151 10.063 9.58484C9.38833 10.2682 9.05067 11.0932 9.05 12.0598C9.04933 13.0265 9.387 13.8515 10.063 14.5348C10.739 15.2182 11.568 15.5598 12.55 15.5598Z"
        fill="#555555" />
</svg>