<svg width="25" height="25" viewBox="0 0 25 25" fill="none" xmlns="http://www.w3.org/2000/svg">
    <path
        d="M13.5 8.05984V4.05984C13.5 3.77651 13.596 3.53918 13.788 3.34785C13.98 3.15651 14.2173 3.06051 14.5 3.05984H20.5C20.7833 3.05984 21.021 3.15585 21.213 3.34785C21.405 3.53985 21.5007 3.77718 21.5 4.05984V8.05984C21.5 8.34318 21.404 8.58085 21.212 8.77285C21.02 8.96485 20.7827 9.06051 20.5 9.05984H14.5C14.2167 9.05984 13.9793 8.96384 13.788 8.77184C13.5967 8.57984 13.5007 8.34251 13.5 8.05984ZM3.5 12.0598V4.05984C3.5 3.77651 3.596 3.53918 3.788 3.34785C3.98 3.15651 4.21733 3.06051 4.5 3.05984H10.5C10.7833 3.05984 11.021 3.15585 11.213 3.34785C11.405 3.53985 11.5007 3.77718 11.5 4.05984V12.0598C11.5 12.3432 11.404 12.5808 11.212 12.7728C11.02 12.9648 10.7827 13.0605 10.5 13.0598H4.5C4.21667 13.0598 3.97933 12.9638 3.788 12.7718C3.59667 12.5798 3.50067 12.3425 3.5 12.0598ZM13.5 20.0598V12.0598C13.5 11.7765 13.596 11.5392 13.788 11.3478C13.98 11.1565 14.2173 11.0605 14.5 11.0598H20.5C20.7833 11.0598 21.021 11.1558 21.213 11.3478C21.405 11.5398 21.5007 11.7772 21.5 12.0598V20.0598C21.5 20.3432 21.404 20.5808 21.212 20.7728C21.02 20.9648 20.7827 21.0605 20.5 21.0598H14.5C14.2167 21.0598 13.9793 20.9638 13.788 20.7718C13.5967 20.5798 13.5007 20.3425 13.5 20.0598ZM3.5 20.0598V16.0598C3.5 15.7765 3.596 15.5392 3.788 15.3478C3.98 15.1565 4.21733 15.0605 4.5 15.0598H10.5C10.7833 15.0598 11.021 15.1558 11.213 15.3478C11.405 15.5398 11.5007 15.7772 11.5 16.0598V20.0598C11.5 20.3432 11.404 20.5808 11.212 20.7728C11.02 20.9648 10.7827 21.0605 10.5 21.0598H4.5C4.21667 21.0598 3.97933 20.9638 3.788 20.7718C3.59667 20.5798 3.50067 20.3425 3.5 20.0598ZM5.5 11.0598H9.5V5.05984H5.5V11.0598ZM15.5 19.0598H19.5V13.0598H15.5V19.0598ZM15.5 7.05984H19.5V5.05984H15.5V7.05984ZM5.5 19.0598H9.5V17.0598H5.5V19.0598Z"
        fill="#555555" />
</svg>