<svg width="25" height="25" viewBox="0 0 25 25" fill="none" xmlns="http://www.w3.org/2000/svg">
    <path
        d="M5.5 21.0598C4.95 21.0598 4.47933 20.8642 4.088 20.4728C3.69667 20.0815 3.50067 19.6105 3.5 19.0598V4.05985C3.5 3.77652 3.596 3.53918 3.788 3.34785C3.98 3.15652 4.21733 3.06052 4.5 3.05985C4.78267 3.05918 5.02033 3.15518 5.213 3.34785C5.40567 3.54052 5.50133 3.77785 5.5 4.05985V19.0598H20.5C20.7833 19.0598 21.021 19.1558 21.213 19.3478C21.405 19.5398 21.5007 19.7772 21.5 20.0598C21.4993 20.3425 21.4033 20.5802 21.212 20.7728C21.0207 20.9655 20.7833 21.0612 20.5 21.0598H5.5ZM7.5 18.0598C7.21667 18.0598 6.97933 17.9638 6.788 17.7718C6.59667 17.5798 6.50067 17.3425 6.5 17.0598V10.0598C6.5 9.77652 6.596 9.53918 6.788 9.34785C6.98 9.15652 7.21733 9.06051 7.5 9.05985H9.5C9.78333 9.05985 10.021 9.15585 10.213 9.34785C10.405 9.53985 10.5007 9.77718 10.5 10.0598V17.0598C10.5 17.3432 10.404 17.5808 10.212 17.7728C10.02 17.9648 9.78267 18.0605 9.5 18.0598H7.5ZM12.5 18.0598C12.2167 18.0598 11.9793 17.9638 11.788 17.7718C11.5967 17.5798 11.5007 17.3425 11.5 17.0598V5.05985C11.5 4.77652 11.596 4.53918 11.788 4.34785C11.98 4.15652 12.2173 4.06052 12.5 4.05985H14.5C14.7833 4.05985 15.021 4.15585 15.213 4.34785C15.405 4.53985 15.5007 4.77718 15.5 5.05985V17.0598C15.5 17.3432 15.404 17.5808 15.212 17.7728C15.02 17.9648 14.7827 18.0605 14.5 18.0598H12.5ZM17.5 18.0598C17.2167 18.0598 16.9793 17.9638 16.788 17.7718C16.5967 17.5798 16.5007 17.3425 16.5 17.0598V14.0598C16.5 13.7765 16.596 13.5392 16.788 13.3478C16.98 13.1565 17.2173 13.0605 17.5 13.0598H19.5C19.7833 13.0598 20.021 13.1558 20.213 13.3478C20.405 13.5398 20.5007 13.7772 20.5 14.0598V17.0598C20.5 17.3432 20.404 17.5808 20.212 17.7728C20.02 17.9648 19.7827 18.0605 19.5 18.0598H17.5Z"
        fill="#555555" />
</svg>