<svg width="25" height="25" viewBox="0 0 25 25" fill="none" xmlns="http://www.w3.org/2000/svg">
    <path
        d="M6.5 22.0598C5.95 22.0598 5.47933 21.8642 5.088 21.4728C4.69667 21.0815 4.50067 20.6105 4.5 20.0598V4.05984C4.5 3.50985 4.696 3.03918 5.088 2.64785C5.48 2.25651 5.95067 2.06051 6.5 2.05984H18.5C19.05 2.05984 19.521 2.25585 19.913 2.64785C20.305 3.03984 20.5007 3.51051 20.5 4.05984V20.0598C20.5 20.6098 20.3043 21.0808 19.913 21.4728C19.5217 21.8648 19.0507 22.0605 18.5 22.0598H6.5ZM6.5 20.0598H18.5V4.05984H16.5V10.1848C16.5 10.3848 16.4167 10.5308 16.25 10.6228C16.0833 10.7148 15.9167 10.7105 15.75 10.6098L14.525 9.85985C14.3583 9.75985 14.1873 9.70984 14.012 9.70984C13.8367 9.70984 13.666 9.75985 13.5 9.85985L12.275 10.6098C12.1083 10.7098 11.9377 10.7142 11.763 10.6228C11.5883 10.5315 11.5007 10.3855 11.5 10.1848V4.05984H6.5V20.0598ZM11.763 10.6228C11.5883 10.5315 11.5007 10.3855 11.5 10.1848C11.4993 10.3855 11.5877 10.5315 11.763 10.6228Z"
        fill="#DDDDDD" />
</svg>