<svg width="25" height="25" viewBox="0 0 25 25" fill="none" xmlns="http://www.w3.org/2000/svg">
    <path
        d="M3.5 20.0598C2.95 20.0598 2.47933 19.8642 2.088 19.4728C1.69667 19.0815 1.50067 18.6105 1.5 18.0598V6.05984C1.5 5.50985 1.696 5.03918 2.088 4.64784C2.48 4.25651 2.95067 4.06051 3.5 4.05984H21.5C22.05 4.05984 22.521 4.25584 22.913 4.64784C23.305 5.03984 23.5007 5.51051 23.5 6.05984V18.0598C23.5 18.6098 23.3043 19.0808 22.913 19.4728C22.5217 19.8648 22.0507 20.0605 21.5 20.0598H3.5ZM3.5 18.0598H21.5V6.05984H3.5V18.0598ZM4 15.0598H5.25V11.5598L7.8 15.0598H9V9.05984H7.75V12.5598L5.25 9.05984H4V15.0598ZM10 15.0598H14V13.8098H11.5V12.7098H14V11.4598H11.5V10.3098H14V9.05984H10V15.0598ZM16 15.0598H20C20.2833 15.0598 20.521 14.9638 20.713 14.7718C20.905 14.5798 21.0007 14.3425 21 14.0598V9.05984H19.75V13.5598H18.65V10.0598H17.4V13.5598H16.25V9.05984H15V14.0598C15 14.3432 15.096 14.5808 15.288 14.7728C15.48 14.9648 15.7173 15.0605 16 15.0598Z"
        fill="#555555" />
</svg>