<svg width="25" height="25" viewBox="0 0 25 25" fill="none" xmlns="http://www.w3.org/2000/svg">
    <path
        d="M12.5 4.05984C13.5609 4.05984 14.5783 4.48127 15.3284 5.23142C16.0786 5.98156 16.5 6.99898 16.5 8.05984C16.5 9.12071 16.0786 10.1381 15.3284 10.8883C14.5783 11.6384 13.5609 12.0598 12.5 12.0598C11.4391 12.0598 10.4217 11.6384 9.67157 10.8883C8.92143 10.1381 8.5 9.12071 8.5 8.05984C8.5 6.99898 8.92143 5.98156 9.67157 5.23142C10.4217 4.48127 11.4391 4.05984 12.5 4.05984ZM12.5 6.05984C11.9696 6.05984 11.4609 6.27056 11.0858 6.64563C10.7107 7.0207 10.5 7.52941 10.5 8.05984C10.5 8.59028 10.7107 9.09899 11.0858 9.47406C11.4609 9.84913 11.9696 10.0598 12.5 10.0598C13.0304 10.0598 13.5391 9.84913 13.9142 9.47406C14.2893 9.09899 14.5 8.59028 14.5 8.05984C14.5 7.52941 14.2893 7.0207 13.9142 6.64563C13.5391 6.27056 13.0304 6.05984 12.5 6.05984ZM12.5 13.0598C15.17 13.0598 20.5 14.3898 20.5 17.0598V20.0598H4.5V17.0598C4.5 14.3898 9.83 13.0598 12.5 13.0598ZM12.5 14.9598C9.53 14.9598 6.4 16.4198 6.4 17.0598V18.1598H18.6V17.0598C18.6 16.4198 15.47 14.9598 12.5 14.9598Z"
        fill="#555555" />
</svg>